{
	"nodes":[{
		"name":"Symmetry.1",
		"translation":[0.0,
		147.5429229736328,
		6.251811504364014],
		"rotation":[0.0,
		0.0,
		0.0,
		-1.0],
		"scale":[1.0,
		1.0,
		1.0],
		"children":[1]
	},
	{
		"name":"Boole",
		"translation":[101.3349380493164,
		-4.95071268081665,
		0.46182262897491457],
		"rotation":[9.371409625539694e-20,
		-5.452165844717508e-20,
		0.5028735399246216,
		0.864359974861145],
		"scale":[1.0,
		1.0,
		1.0],
		"children":[2,
		4]
	},
	{
		"name":"Extrude",
		"translation":[-4.263256414560601e-14,
		-2.842170943040401e-14,
		-6.251811504364014],
		"rotation":[0.0,
		0.0,
		0.0,
		-1.0],
		"scale":[1.0,
		1.0,
		1.0],
		"children":[3]
	},
	{
		"name":"Extrude",
		"mesh":0
	},
	{
		"name":"Extrude.1",
		"translation":[0.0,
		0.0,
		-5.481027603149414],
		"rotation":[0.0,
		0.0,
		0.0,
		-1.0],
		"scale":[1.0,
		1.0,
		1.0],
		"children":[5]
	},
	{
		"name":"Extrude.1",
		"mesh":1
	},
	{
		"name":"Symmetry",
		"translation":[0.7894442677497864,
		91.32719421386719,
		78.70819854736328],
		"rotation":[0.049095094203948978,
		-0.04124162346124649,
		0.006942166946828365,
		-0.9979181289672852],
		"scale":[1.0,
		1.0,
		1.0],
		"children":[7]
	},
	{
		"name":"Extrude",
		"translation":[-48.954124450683597,
		-4.305846691131592,
		-4.092663288116455],
		"rotation":[0.06970016658306122,
		-0.14442165195941926,
		-0.05534880980849266,
		0.9855053424835205],
		"scale":[1.0,
		1.0,
		1.0],
		"children":[8]
	},
	{
		"name":"Extrude",
		"mesh":2
	},
	{
		"name":"Sweep",
		"translation":[0.2852006256580353,
		83.69161224365235,
		77.19600677490235],
		"rotation":[0.0,
		0.0,
		0.9282692074775696,
		-0.37190890312194826],
		"scale":[1.0,
		1.0,
		1.0],
		"children":[10]
	},
	{
		"name":"Sweep",
		"mesh":3
	},
	{
		"name":"코",
		"translation":[0.0,
		82.78936767578125,
		94.99269104003906],
		"rotation":[1.0,
		-6.123234262925839e-17,
		6.123234262925839e-17,
		6.123234262925839e-17],
		"scale":[1.0,
		1.0,
		1.0],
		"mesh":4
	},
	{
		"name":"눈",
		"translation":[5.10551643371582,
		111.81362915039063,
		52.79634475708008],
		"rotation":[0.0,
		0.0,
		0.0,
		-1.0],
		"scale":[1.0,
		1.0,
		1.0],
		"children":[13,
		15,
		17]
	},
	{
		"name":"Extrude",
		"translation":[-33.842559814453128,
		7.639761924743652,
		30.198471069335939],
		"rotation":[0.0,
		0.0,
		0.0,
		-1.0],
		"scale":[1.0,
		1.0,
		1.0],
		"children":[14]
	},
	{
		"name":"Extrude",
		"mesh":5
	},
	{
		"name":"Extrude.2",
		"translation":[17.129657745361329,
		8.336358070373536,
		30.934154510498048],
		"rotation":[0.0,
		0.0,
		0.0,
		-1.0],
		"scale":[1.0,
		1.0,
		1.0],
		"children":[16]
	},
	{
		"name":"Extrude.2",
		"mesh":6
	},
	{
		"name":"Symmetry.1",
		"translation":[-5.714466571807861,
		-16.67271614074707,
		-61.868309020996097],
		"rotation":[0.22631965577602387,
		0.0,
		0.0,
		-0.9740530848503113],
		"scale":[1.0,
		1.0,
		1.0],
		"children":[18]
	},
	{
		"name":"눈.1",
		"translation":[26.230504989624025,
		-29.721282958984376,
		87.51187133789063],
		"rotation":[-0.22631965577602387,
		0.0,
		0.0,
		-0.9740530848503113],
		"scale":[1.0,
		1.0,
		1.0],
		"children":[19,
		21]
	},
	{
		"name":"Extrude.1",
		"translation":[2.0356833934783937,
		-21.184659957885743,
		-0.8415288329124451],
		"rotation":[0.0,
		0.0,
		0.0,
		-1.0],
		"scale":[1.0,
		1.0,
		1.0],
		"children":[20]
	},
	{
		"name":"Extrude.1",
		"mesh":7
	},
	{
		"name":"Extrude",
		"translation":[2.0356833934783937,
		8.08250904083252,
		-0.30992525815963747],
		"rotation":[0.0,
		0.0,
		0.0,
		-1.0],
		"scale":[1.0,
		1.0,
		1.0],
		"children":[22]
	},
	{
		"name":"Extrude",
		"mesh":8
	},
	{
		"name":"눈썹",
		"translation":[0.0,
		90.99967193603516,
		25.774812698364259],
		"rotation":[0.22631965577602387,
		0.0,
		0.0,
		-0.9740530848503113],
		"scale":[1.0,
		1.0,
		1.0],
		"children":[24]
	},
	{
		"name":"Extrude",
		"translation":[-23.566978454589845,
		45.913021087646487,
		74.74620819091797],
		"rotation":[2.4310691378374757e-18,
		-1.0120448088287275e-17,
		0.23356933891773225,
		-0.9723401665687561],
		"scale":[1.0,
		1.0,
		1.0],
		"children":[25]
	},
	{
		"name":"Extrude",
		"mesh":9
	},
	{
		"name":"Subdivision Surface",
		"translation":[0.0,
		103.60590362548828,
		0.0],
		"rotation":[0.0,
		0.0,
		0.0,
		-1.0],
		"scale":[1.0,
		1.0,
		1.0],
		"children":[27]
	},
	{
		"name":"Sphere",
		"translation":[0.0,
		0.0,
		0.0],
		"rotation":[-0.0988515093922615,
		0.0,
		0.0,
		-0.9951021671295166],
		"scale":[1.0,
		1.0,
		1.0],
		"mesh":10
	}],
	"asset":{
		"version":"2.0",
		"generator":"Created using the official Cinema 4D glTF Exporter 1.000x284978"
	},
	"scenes":[{
		"nodes":[0,
		6,
		9,
		11,
		12,
		23,
		26]
	}],
	"meshes":[{
		"name":"Extrude",
		"primitives":[{
			"attributes":{
				"POSITION":1,
				"NORMAL":2,
				"TEXCOORD_0":3
			},
			"indices":0,
			"material":0
		}]
	},
	{
		"name":"Extrude.1",
		"primitives":[{
			"attributes":{
				"POSITION":5,
				"NORMAL":6,
				"TEXCOORD_0":7
			},
			"indices":4,
			"material":0
		}]
	},
	{
		"name":"Extrude",
		"primitives":[{
			"attributes":{
				"POSITION":9,
				"NORMAL":10,
				"TEXCOORD_0":11
			},
			"indices":8,
			"material":1
		}]
	},
	{
		"name":"Sweep",
		"primitives":[{
			"attributes":{
				"POSITION":13,
				"NORMAL":14,
				"TEXCOORD_0":15
			},
			"indices":12,
			"material":2
		}]
	},
	{
		"name":"코",
		"primitives":[{
			"attributes":{
				"POSITION":17,
				"NORMAL":18,
				"TEXCOORD_0":19
			},
			"indices":16,
			"material":0
		}]
	},
	{
		"name":"Extrude",
		"primitives":[{
			"attributes":{
				"POSITION":21,
				"NORMAL":22,
				"TEXCOORD_0":23
			},
			"indices":20,
			"material":3
		}]
	},
	{
		"name":"Extrude.2",
		"primitives":[{
			"attributes":{
				"POSITION":25,
				"NORMAL":26,
				"TEXCOORD_0":27
			},
			"indices":24,
			"material":3
		}]
	},
	{
		"name":"Extrude.1",
		"primitives":[{
			"attributes":{
				"POSITION":29,
				"NORMAL":30,
				"TEXCOORD_0":31
			},
			"indices":28,
			"material":4
		}]
	},
	{
		"name":"Extrude",
		"primitives":[{
			"attributes":{
				"POSITION":33,
				"NORMAL":34,
				"TEXCOORD_0":35
			},
			"indices":32,
			"material":5
		}]
	},
	{
		"name":"Extrude",
		"primitives":[{
			"attributes":{
				"POSITION":37,
				"NORMAL":38,
				"TEXCOORD_0":39
			},
			"indices":36,
			"material":2
		}]
	},
	{
		"name":"Sphere",
		"primitives":[{
			"attributes":{
				"POSITION":41,
				"NORMAL":42,
				"TEXCOORD_0":43
			},
			"indices":40,
			"material":6
		}]
	}],
	"accessors":[{
		"max":[47],
		"bufferView":0,
		"type":"SCALAR",
		"componentType":5123,
		"count":108,
		"byteOffset":0,
		"min":[0]
	},
	{
		"max":[58.48046875,
		226.4391632080078,
		8.881784197001253e-16],
		"bufferView":1,
		"type":"VEC3",
		"componentType":5126,
		"count":48,
		"byteOffset":0,
		"min":[-130.07730102539063,
		-29.240234375,
		-3.0]
	},
	{
		"max":[0.9973194599151611,
		0.986393928527832,
		1.0],
		"bufferView":1,
		"type":"VEC3",
		"componentType":5126,
		"count":48,
		"byteOffset":12,
		"min":[-0.9973195195198059,
		-0.986393928527832,
		-1.0]
	},
	{
		"max":[1.0,
		1.0],
		"bufferView":1,
		"type":"VEC2",
		"componentType":5126,
		"count":48,
		"byteOffset":24,
		"min":[0.0,
		0.0]
	},
	{
		"max":[31],
		"bufferView":2,
		"type":"SCALAR",
		"componentType":5123,
		"count":60,
		"byteOffset":0,
		"min":[0]
	},
	{
		"max":[39.77962112426758,
		210.36940002441407,
		-0.7707836031913757],
		"bufferView":3,
		"type":"VEC3",
		"componentType":5126,
		"count":32,
		"byteOffset":0,
		"min":[-120.51254272460938,
		-19.88981056213379,
		-2.0406618118286135]
	},
	{
		"max":[0.9973194599151611,
		0.986393928527832,
		1.0],
		"bufferView":3,
		"type":"VEC3",
		"componentType":5126,
		"count":32,
		"byteOffset":12,
		"min":[-0.9973194599151611,
		-0.986393928527832,
		0.0]
	},
	{
		"max":[1.0,
		1.0],
		"bufferView":3,
		"type":"VEC2",
		"componentType":5126,
		"count":32,
		"byteOffset":24,
		"min":[0.0,
		0.0]
	},
	{
		"max":[291],
		"bufferView":4,
		"type":"SCALAR",
		"componentType":5123,
		"count":840,
		"byteOffset":0,
		"min":[0]
	},
	{
		"max":[103.38676452636719,
		16.32111358642578,
		0.0],
		"bufferView":5,
		"type":"VEC3",
		"componentType":5126,
		"count":292,
		"byteOffset":0,
		"min":[-12.413132667541504,
		-7.447879791259766,
		-35.65016555786133]
	},
	{
		"max":[0.9988573789596558,
		0.9998517632484436,
		1.0],
		"bufferView":5,
		"type":"VEC3",
		"componentType":5126,
		"count":292,
		"byteOffset":12,
		"min":[-0.9988573789596558,
		-0.9998517632484436,
		-1.0]
	},
	{
		"max":[1.0,
		1.0],
		"bufferView":5,
		"type":"VEC2",
		"componentType":5126,
		"count":292,
		"byteOffset":24,
		"min":[0.0,
		0.0]
	},
	{
		"max":[1440],
		"bufferView":6,
		"type":"SCALAR",
		"componentType":5123,
		"count":7980,
		"byteOffset":0,
		"min":[0]
	},
	{
		"max":[35.249542236328128,
		35.985595703125,
		0.2021687924861908],
		"bufferView":7,
		"type":"VEC3",
		"componentType":5126,
		"count":1441,
		"byteOffset":0,
		"min":[2.2534396648406984,
		5.684484004974365,
		-4.275991439819336]
	},
	{
		"max":[0.9686030149459839,
		0.98788982629776,
		0.9984967708587647],
		"bufferView":7,
		"type":"VEC3",
		"componentType":5126,
		"count":1441,
		"byteOffset":12,
		"min":[-0.9855980277061462,
		-0.987919807434082,
		-0.9984967708587647]
	},
	{
		"max":[1.0,
		1.0],
		"bufferView":7,
		"type":"VEC2",
		"componentType":5126,
		"count":1441,
		"byteOffset":24,
		"min":[0.0,
		0.0]
	},
	{
		"max":[153],
		"bufferView":8,
		"type":"SCALAR",
		"componentType":5123,
		"count":624,
		"byteOffset":0,
		"min":[0]
	},
	{
		"max":[22.58738899230957,
		22.58738899230957,
		20.259950637817384],
		"bufferView":9,
		"type":"VEC3",
		"componentType":5126,
		"count":154,
		"byteOffset":0,
		"min":[-22.58738899230957,
		-22.58738899230957,
		-22.58738899230957]
	},
	{
		"max":[0.9808900952339172,
		0.9990131258964539,
		1.0],
		"bufferView":9,
		"type":"VEC3",
		"componentType":5126,
		"count":154,
		"byteOffset":12,
		"min":[-0.9808900952339172,
		-0.9990131258964539,
		-0.9798780679702759]
	},
	{
		"max":[1.0,
		1.0],
		"bufferView":9,
		"type":"VEC2",
		"componentType":5126,
		"count":154,
		"byteOffset":24,
		"min":[5.551115123125783e-17,
		-1.1102230246251566e-16]
	},
	{
		"max":[145],
		"bufferView":10,
		"type":"SCALAR",
		"componentType":5123,
		"count":420,
		"byteOffset":0,
		"min":[0]
	},
	{
		"max":[4.05788516998291,
		9.585339546203614,
		0.0],
		"bufferView":11,
		"type":"VEC3",
		"componentType":5126,
		"count":146,
		"byteOffset":0,
		"min":[-4.05788516998291,
		1.4695686101913453,
		-0.06875859946012497]
	},
	{
		"max":[0.9995883107185364,
		0.999588131904602,
		1.0],
		"bufferView":11,
		"type":"VEC3",
		"componentType":5126,
		"count":146,
		"byteOffset":12,
		"min":[-0.9995883107185364,
		-0.9995883107185364,
		-1.0]
	},
	{
		"max":[1.0,
		1.0],
		"bufferView":11,
		"type":"VEC2",
		"componentType":5126,
		"count":146,
		"byteOffset":24,
		"min":[0.0,
		0.0]
	},
	{
		"max":[145],
		"bufferView":12,
		"type":"SCALAR",
		"componentType":5123,
		"count":420,
		"byteOffset":0,
		"min":[0]
	},
	{
		"max":[4.05788516998291,
		9.585339546203614,
		0.0],
		"bufferView":13,
		"type":"VEC3",
		"componentType":5126,
		"count":146,
		"byteOffset":0,
		"min":[-4.05788516998291,
		1.4695686101913453,
		-0.06875859946012497]
	},
	{
		"max":[0.9995883107185364,
		0.999588131904602,
		1.0],
		"bufferView":13,
		"type":"VEC3",
		"componentType":5126,
		"count":146,
		"byteOffset":12,
		"min":[-0.9995883107185364,
		-0.9995883107185364,
		-1.0]
	},
	{
		"max":[1.0,
		1.0],
		"bufferView":13,
		"type":"VEC2",
		"componentType":5126,
		"count":146,
		"byteOffset":24,
		"min":[0.0,
		0.0]
	},
	{
		"max":[291],
		"bufferView":14,
		"type":"SCALAR",
		"componentType":5123,
		"count":840,
		"byteOffset":0,
		"min":[0]
	},
	{
		"max":[24.79694938659668,
		58.57414627075195,
		1.1577405565265861e-14],
		"bufferView":15,
		"type":"VEC3",
		"componentType":5126,
		"count":292,
		"byteOffset":0,
		"min":[-81.3293228149414,
		8.98024845123291,
		-0.4201704263687134]
	},
	{
		"max":[0.9995882511138916,
		0.9995882511138916,
		1.0],
		"bufferView":15,
		"type":"VEC3",
		"componentType":5126,
		"count":292,
		"byteOffset":12,
		"min":[-0.9995882511138916,
		-0.9995882511138916,
		-1.0]
	},
	{
		"max":[1.0,
		1.0],
		"bufferView":15,
		"type":"VEC2",
		"componentType":5126,
		"count":292,
		"byteOffset":24,
		"min":[0.0,
		0.0]
	},
	{
		"max":[583],
		"bufferView":16,
		"type":"SCALAR",
		"componentType":5123,
		"count":1728,
		"byteOffset":0,
		"min":[0]
	},
	{
		"max":[24.501737594604493,
		25.9346923828125,
		2.6440141918872459e-14],
		"bufferView":17,
		"type":"VEC3",
		"componentType":5126,
		"count":584,
		"byteOffset":0,
		"min":[-81.03411102294922,
		-23.65920639038086,
		-0.4201704263687134]
	},
	{
		"max":[0.9995882511138916,
		0.9995882511138916,
		1.0],
		"bufferView":17,
		"type":"VEC3",
		"componentType":5126,
		"count":584,
		"byteOffset":12,
		"min":[-0.9995882511138916,
		-0.9995882511138916,
		-1.0]
	},
	{
		"max":[1.0,
		1.0],
		"bufferView":17,
		"type":"VEC2",
		"componentType":5126,
		"count":584,
		"byteOffset":24,
		"min":[0.0,
		0.0]
	},
	{
		"max":[55],
		"bufferView":18,
		"type":"SCALAR",
		"componentType":5123,
		"count":96,
		"byteOffset":0,
		"min":[0]
	},
	{
		"max":[64.8901138305664,
		19.51176643371582,
		-1.4173253228607491e-14],
		"bufferView":19,
		"type":"VEC3",
		"componentType":5126,
		"count":56,
		"byteOffset":0,
		"min":[-6.911012172698975,
		-24.930496215820314,
		-1.2025507688522339]
	},
	{
		"max":[1.0,
		0.9994713068008423,
		1.0],
		"bufferView":19,
		"type":"VEC3",
		"componentType":5126,
		"count":56,
		"byteOffset":12,
		"min":[-0.9989883303642273,
		-0.9994713068008423,
		-1.0]
	},
	{
		"max":[1.0,
		1.0],
		"bufferView":19,
		"type":"VEC2",
		"componentType":5126,
		"count":56,
		"byteOffset":24,
		"min":[0.0,
		0.0]
	},
	{
		"max":[2072],
		"bufferView":20,
		"type":"SCALAR",
		"componentType":5123,
		"count":11520,
		"byteOffset":0,
		"min":[0]
	},
	{
		"max":[95.2990493774414,
		93.10118865966797,
		80.46749877929688],
		"bufferView":21,
		"type":"VEC3",
		"componentType":5126,
		"count":2073,
		"byteOffset":0,
		"min":[-95.29905700683594,
		-98.79833984375,
		-78.97740173339844]
	},
	{
		"max":[0.9999998807907105,
		0.9990135431289673,
		0.9997999668121338],
		"bufferView":21,
		"type":"VEC3",
		"componentType":5126,
		"count":2073,
		"byteOffset":12,
		"min":[-0.9999999403953552,
		-0.9999986290931702,
		-0.9996153116226196]
	},
	{
		"max":[1.0,
		0.9609375],
		"bufferView":21,
		"type":"VEC2",
		"componentType":5126,
		"count":2073,
		"byteOffset":24,
		"min":[0.0,
		0.0390625]
	}],
	"bufferViews":[{
		"byteOffset":0,
		"buffer":0,
		"byteLength":216,
		"target":34963
	},
	{
		"byteOffset":216,
		"buffer":0,
		"byteStride":32,
		"byteLength":1536,
		"target":34962
	},
	{
		"byteOffset":0,
		"buffer":1,
		"byteLength":120,
		"target":34963
	},
	{
		"byteOffset":120,
		"buffer":1,
		"byteStride":32,
		"byteLength":1024,
		"target":34962
	},
	{
		"byteOffset":0,
		"buffer":2,
		"byteLength":1680,
		"target":34963
	},
	{
		"byteOffset":1680,
		"buffer":2,
		"byteStride":32,
		"byteLength":9344,
		"target":34962
	},
	{
		"byteOffset":0,
		"buffer":3,
		"byteLength":15960,
		"target":34963
	},
	{
		"byteOffset":15960,
		"buffer":3,
		"byteStride":32,
		"byteLength":46112,
		"target":34962
	},
	{
		"byteOffset":0,
		"buffer":4,
		"byteLength":1248,
		"target":34963
	},
	{
		"byteOffset":1248,
		"buffer":4,
		"byteStride":32,
		"byteLength":4928,
		"target":34962
	},
	{
		"byteOffset":0,
		"buffer":5,
		"byteLength":840,
		"target":34963
	},
	{
		"byteOffset":840,
		"buffer":5,
		"byteStride":32,
		"byteLength":4672,
		"target":34962
	},
	{
		"byteOffset":0,
		"buffer":6,
		"byteLength":840,
		"target":34963
	},
	{
		"byteOffset":840,
		"buffer":6,
		"byteStride":32,
		"byteLength":4672,
		"target":34962
	},
	{
		"byteOffset":0,
		"buffer":7,
		"byteLength":1680,
		"target":34963
	},
	{
		"byteOffset":1680,
		"buffer":7,
		"byteStride":32,
		"byteLength":9344,
		"target":34962
	},
	{
		"byteOffset":0,
		"buffer":8,
		"byteLength":3456,
		"target":34963
	},
	{
		"byteOffset":3456,
		"buffer":8,
		"byteStride":32,
		"byteLength":18688,
		"target":34962
	},
	{
		"byteOffset":0,
		"buffer":9,
		"byteLength":192,
		"target":34963
	},
	{
		"byteOffset":192,
		"buffer":9,
		"byteStride":32,
		"byteLength":1792,
		"target":34962
	},
	{
		"byteOffset":0,
		"buffer":10,
		"byteLength":23040,
		"target":34963
	},
	{
		"byteOffset":23040,
		"buffer":10,
		"byteStride":32,
		"byteLength":66336,
		"target":34962
	}],
	"buffers":[{
		"uri":"data:application/octet-stream;base64,",
		"byteLength":1752
	},
	{
		"uri":"data:application/octet-stream;base64,",
		"byteLength":1144
	},
	{
		"uri":"data:application/octet-stream;base64,",
		"byteLength":11024
	},
	{
		"uri":"data:application/octet-stream;base64,",
		"byteLength":62072
	},
	{
		"uri":"data:application/octet-stream;base64,",
		"byteLength":6176
	},
	{
		"uri":"data:application/octet-stream;base64,",
		"byteLength":5512
	},
	{
		"uri":"data:application/octet-stream;base64,",
		"byteLength":5512
	},
	{
		"uri":"data:application/octet-stream;base64,",
		"byteLength":11024
	},
	{
		"uri":"data:application/octet-stream;base64,",
		"byteLength":22144
	},
	{
		"uri":"data:application/octet-stream;base64,",
		"byteLength":1984
	},
	{
		"uri":"data:application/octet-stream;base64,",
		"byteLength":89376
	}],
	"materials":[{
		"pbrMetallicRoughness":{
			"baseColorFactor":[0.9921568627450981,
			0.7058823529411764,
			0.2901960784313725,
			1.0],
			"metallicFactor":0.0,
			"roughnessFactor":0.5
		},
		"emissiveFactor":[0.0,
		0.0,
		0.0],
		"doubleSided":false,
		"alphaMode":"OPAQUE",
		"name":"코"
	},
	{
		"pbrMetallicRoughness":{
			"baseColorFactor":[0.9921568627450981,
			0.7137254901960785,
			0.3058823529411765,
			1.0],
			"metallicFactor":0.0,
			"roughnessFactor":0.5
		},
		"emissiveFactor":[0.0,
		0.0,
		0.0],
		"doubleSided":false,
		"alphaMode":"OPAQUE",
		"name":"볼"
	},
	{
		"pbrMetallicRoughness":{
			"baseColorFactor":[0.5176470588235294,
			0.7215686274509804,
			0.1686274509803922,
			1.0],
			"metallicFactor":0.0,
			"roughnessFactor":0.5
		},
		"emissiveFactor":[0.0,
		0.0,
		0.0],
		"doubleSided":false,
		"alphaMode":"OPAQUE",
		"name":"눈썹"
	},
	{
		"pbrMetallicRoughness":{
			"baseColorFactor":[0.91,
			0.91,
			0.91,
			1.0],
			"metallicFactor":0.0,
			"roughnessFactor":0.5
		},
		"emissiveFactor":[0.0,
		0.0,
		0.0],
		"doubleSided":false,
		"alphaMode":"OPAQUE",
		"name":"Mat.3"
	},
	{
		"pbrMetallicRoughness":{
			"baseColorFactor":[0.11764705882352941,
			0.09019607843137254,
			0.03529411764705883,
			1.0],
			"metallicFactor":0.0,
			"roughnessFactor":0.5
		},
		"emissiveFactor":[0.0,
		0.0,
		0.0],
		"doubleSided":false,
		"alphaMode":"OPAQUE",
		"name":"Mat.2"
	},
	{
		"pbrMetallicRoughness":{
			"baseColorFactor":[0.996078431372549,
			0.9921568627450981,
			0.5098039215686274,
			1.0],
			"metallicFactor":0.0,
			"roughnessFactor":0.5
		},
		"emissiveFactor":[0.0,
		0.0,
		0.0],
		"doubleSided":false,
		"alphaMode":"OPAQUE",
		"name":"Mat.1"
	},
	{
		"pbrMetallicRoughness":{
			"baseColorFactor":[0.6784313725490196,
			0.9137254901960784,
			0.3647058823529412,
			1.0],
			"metallicFactor":0.0,
			"roughnessFactor":0.5
		},
		"emissiveFactor":[0.0,
		0.0,
		0.0],
		"doubleSided":false,
		"alphaMode":"OPAQUE",
		"name":"Mat"
	}]
}